<svg width="48" height="48" viewBox="0 0 48 48" fill="none" xmlns="http://www.w3.org/2000/svg">
<rect width="48" height="48" rx="8" fill="url(#paint0_linear_51_35)"/>
<path d="M13.984 23.988C15.136 24.2013 15.9573 24.6707 16.448 25.396C16.96 26.1213 17.216 27.1667 17.216 28.532V32.148C17.216 33.044 17.344 33.6947 17.6 34.1C17.856 34.5053 18.3253 34.708 19.008 34.708H21.984V37.78H18.656C16.736 37.78 15.4027 37.364 14.656 36.532C13.9307 35.7 13.568 34.4947 13.568 32.916V28.212C13.568 27.316 13.4293 26.644 13.152 26.196C12.8747 25.7267 12.4053 25.492 11.744 25.492H10.016V22.42H11.744C12.4053 22.42 12.8747 22.196 13.152 21.748C13.4293 21.2787 13.568 20.6067 13.568 19.732V14.996C13.568 13.4173 13.9307 12.212 14.656 11.38C15.4027 10.548 16.736 10.132 18.656 10.132H21.984V13.204H19.008C18.3253 13.204 17.856 13.4067 17.6 13.812C17.344 14.196 17.216 14.8467 17.216 15.764V19.38C17.216 20.7453 16.96 21.7907 16.448 22.516C15.9573 23.2413 15.136 23.732 13.984 23.988ZM34.016 23.924C32.864 23.7107 32.032 23.2413 31.52 22.516C31.008 21.7907 30.752 20.7453 30.752 19.38V15.764C30.752 14.868 30.624 14.2173 30.368 13.812C30.112 13.4067 29.6427 13.204 28.96 13.204H26.016V10.132H29.312C30.272 10.132 31.072 10.2387 31.712 10.452C32.3733 10.6653 32.896 10.9747 33.28 11.38C33.6853 11.7853 33.9733 12.2973 34.144 12.916C34.3147 13.5133 34.4 14.2067 34.4 14.996V19.7C34.4 20.596 34.5387 21.2787 34.816 21.748C35.0933 22.196 35.5627 22.42 36.224 22.42H37.984V25.492H36.224C35.5627 25.492 35.0933 25.7267 34.816 26.196C34.5387 26.644 34.4 27.3053 34.4 28.18V32.916C34.4 33.7053 34.3147 34.3987 34.144 34.996C33.9733 35.6147 33.6853 36.1267 33.28 36.532C32.896 36.9373 32.3733 37.2467 31.712 37.46C31.072 37.6733 30.272 37.78 29.312 37.78H26.016V34.708H28.96C29.6427 34.708 30.112 34.5053 30.368 34.1C30.624 33.716 30.752 33.0653 30.752 32.148V28.532C30.752 27.1667 31.008 26.1213 31.52 25.396C32.032 24.6707 32.864 24.18 34.016 23.924Z" fill="white"/>
<defs>
<linearGradient id="paint0_linear_51_35" x1="0" y1="24" x2="48" y2="24" gradientUnits="userSpaceOnUse">
<stop stop-color="#0097B6"/>
<stop offset="1" stop-color="#00B8AA"/>
</linearGradient>
</defs>
</svg>
