<svg width="49" height="49" viewBox="0 0 49 49" fill="none" xmlns="http://www.w3.org/2000/svg">
<rect width="49" height="49" rx="8.16667" fill="url(#paint0_linear_26_35)"/>
<path d="M10.2084 23.9843C10.2084 23.83 10.3272 23.705 10.4738 23.705H11.6005C11.7471 23.705 11.8659 23.5799 11.8659 23.4258V22.1917C11.8659 22.0375 11.9848 21.9125 12.1314 21.9125H14.8367C14.9833 21.9125 15.1021 21.7874 15.1021 21.6331V20.3695C15.1021 20.2154 15.2209 20.0903 15.3675 20.0903H16.4678C16.6144 20.0903 16.7333 19.9653 16.7333 19.8109V18.5476C16.7333 18.3934 16.8522 18.2684 16.9987 18.2684H19.7302C19.8769 18.2684 19.9958 18.1433 19.9958 17.9891V17.0489C19.9958 16.8946 19.8769 16.7696 19.7302 16.7696H16.9987C16.8522 16.7696 16.7333 16.6446 16.7333 16.4903V15.2267C16.7333 15.0725 16.6144 14.9475 16.4678 14.9475H15.3675C15.2209 14.9475 15.1021 14.8224 15.1021 14.6682V13.4048C15.1021 13.2505 14.9833 13.1255 14.8367 13.1255H12.1314C11.9848 13.1255 11.8659 13.0005 11.8659 12.8462V11.5828C11.8659 11.4285 11.7471 11.3035 11.6005 11.3035H10.4738C10.3272 11.3035 10.2084 11.1785 10.2084 11.0242V9.46677C10.2084 9.31254 10.3272 9.1875 10.4738 9.1875H11.8899C12.0365 9.1875 12.1553 9.31254 12.1553 9.46677V10.7303C12.1553 10.8845 12.2742 11.0095 12.4208 11.0095H15.126C15.2726 11.0095 15.3914 11.1346 15.3914 11.2888V12.523C15.3914 12.6772 15.5103 12.8023 15.6569 12.8023H16.7573C16.904 12.8023 17.0228 12.9273 17.0228 13.0815V14.345C17.0228 14.4992 17.1417 14.6242 17.2882 14.6242H19.9932C20.1399 14.6242 20.2588 14.7493 20.2588 14.9035V16.1669C20.2588 16.3212 20.3777 16.4462 20.5242 16.4462H21.6247C21.7712 16.4462 21.89 16.5712 21.89 16.7255V18.3123C21.89 18.4666 21.7712 18.5915 21.6247 18.5915H20.5242C20.3777 18.5915 20.2588 18.7166 20.2588 18.8709V20.105C20.2588 20.2593 20.1399 20.3842 19.9932 20.3842H17.2882C17.1417 20.3842 17.0228 20.5092 17.0228 20.6636V21.9269C17.0228 22.0813 16.904 22.2063 16.7573 22.2063H15.6569C15.5103 22.2063 15.3914 22.3314 15.3914 22.4855V23.7489C15.3914 23.9032 15.2726 24.0283 15.126 24.0283H12.4208C12.2742 24.0283 12.1553 24.1533 12.1553 24.3075V25.6005C12.1553 25.7548 12.0365 25.8797 11.8899 25.8797H10.4738C10.3272 25.8797 10.2084 25.7548 10.2084 25.6005V23.9843ZM35.4638 26.4676C35.6103 26.4676 35.7292 26.5926 35.7292 26.7467V28.3041C35.7292 28.4583 35.6103 28.5833 35.4638 28.5833H22.9447C22.7982 28.5833 22.6794 28.4583 22.6794 28.3041V26.7467C22.6794 26.5926 22.7982 26.4676 22.9447 26.4676H35.4638Z" fill="white"/>
<defs>
<linearGradient id="paint0_linear_26_35" x1="-6.17971e-08" y1="18.375" x2="40.3229" y2="24.5" gradientUnits="userSpaceOnUse">
<stop offset="0.364483" stop-color="#0097B6"/>
<stop offset="0.364583" stop-color="#00B8AA"/>
</linearGradient>
</defs>
</svg>
